<?xml version="1.0" standalone="no"?>
<!DOCTYPE svg PUBLIC "-//W3C//DTD SVG 20010904//EN"
 "http://www.w3.org/TR/2001/REC-SVG-20010904/DTD/svg10.dtd">
<svg version="1.0" xmlns="http://www.w3.org/2000/svg"
 width="300.000000pt" height="300.000000pt" viewBox="0 0 300.000000 300.000000"
 preserveAspectRatio="xMidYMid meet">
<metadata>
Created by potrace 1.11, written by Peter Selinger 2001-2013
</metadata>
<g transform="translate(0.000000,300.000000) scale(0.100000,-0.100000)"
fill="#000000" stroke="none">
<path d="M2779 2946 c-2 -2 -73 -6 -157 -9 -84 -3 -155 -7 -157 -9 -2 -2 7
-26 20 -53 14 -26 25 -53 25 -59 -1 -6 -78 -66 -173 -133 -95 -67 -262 -187
-371 -266 l-200 -143 -255 64 c-141 35 -267 66 -281 68 -20 4 -65 -24 -220
-136 -107 -77 -213 -153 -235 -168 -82 -58 -590 -425 -600 -433 -9 -9 29 -94
47 -105 4 -3 130 84 280 192 150 109 375 270 499 360 l226 162 279 -69 c244
-60 280 -67 298 -55 12 7 185 131 386 276 201 144 370 264 376 267 7 2 25 -21
40 -52 l29 -57 40 85 c22 47 51 109 64 138 14 30 33 71 43 91 10 20 14 39 9
42 -4 3 -10 4 -12 2z"/>
<path d="M2418 2095 c-2 -2 -25 -5 -53 -8 -65 -7 -158 -34 -216 -63 -53 -26
-109 -86 -109 -115 0 -77 113 -149 290 -184 94 -19 269 -15 360 8 153 39 257
113 247 176 -10 67 -120 137 -258 166 -62 14 -252 28 -261 20z"/>
<path d="M2040 1648 c0 -72 4 -99 18 -120 61 -93 253 -152 466 -144 61 3 120
7 131 9 122 29 203 67 249 117 33 37 33 38 33 134 0 53 -1 96 -4 96 -2 0 -21
-11 -43 -25 -65 -41 -148 -69 -265 -90 -39 -7 -231 -7 -270 0 -16 3 -40 8 -53
10 -79 14 -222 72 -238 96 -16 27 -24 -1 -24 -83z"/>
<path d="M1388 1429 c-130 -14 -236 -55 -300 -117 -83 -79 -20 -169 155 -224
85 -27 125 -32 247 -33 159 0 242 16 340 65 157 80 150 177 -20 257 -97 46
-273 68 -422 52z"/>
<path d="M2040 1320 c0 -107 13 -139 70 -175 210 -132 619 -122 783 20 38 34
45 58 45 158 0 79 -7 103 -22 78 -12 -18 -138 -72 -213 -90 -63 -16 -108 -19
-228 -17 -174 3 -277 25 -371 82 -31 19 -58 34 -60 34 -2 0 -4 -41 -4 -90z"/>
<path d="M1049 1062 c-1 -9 -1 -53 -1 -96 1 -94 12 -115 91 -163 207 -125 637
-100 775 46 28 29 29 35 31 131 0 55 0 100 -2 100 -1 0 -25 -13 -52 -29 -208
-123 -558 -125 -778 -5 -54 29 -63 31 -64 16z"/>
<path d="M2040 990 c0 -60 5 -101 15 -119 22 -44 137 -110 220 -127 92 -18
131 -22 210 -22 151 0 275 28 368 84 71 43 85 73 85 181 l0 92 -76 -39 c-186
-94 -444 -110 -658 -39 -34 11 -82 33 -108 49 -26 17 -49 30 -51 30 -3 0 -5
-41 -5 -90z"/>
<path d="M448 775 c-2 -1 -30 -5 -63 -8 -136 -13 -286 -83 -317 -147 -39 -81
56 -163 246 -210 72 -18 290 -21 366 -5 171 35 282 116 270 195 -12 82 -208
166 -407 174 -50 2 -93 2 -95 1z"/>
<path d="M1048 653 c4 -113 12 -131 79 -173 98 -62 250 -95 406 -87 142 7 208
22 298 67 48 25 106 76 110 98 3 15 5 192 2 192 -1 0 -24 -13 -50 -28 -117
-69 -256 -97 -443 -89 -168 7 -208 18 -400 115 -3 1 -4 -42 -2 -95z"/>
<path d="M2040 659 c0 -90 8 -120 39 -149 42 -40 141 -86 206 -96 17 -3 45 -9
63 -14 44 -12 224 -11 292 2 128 23 240 76 277 132 17 26 21 47 21 124 0 50
-2 92 -4 92 -2 0 -22 -11 -44 -25 -110 -69 -227 -95 -420 -92 -168 3 -273 27
-366 83 -31 19 -58 34 -60 34 -2 0 -4 -41 -4 -91z"/>
<path d="M57 411 c-3 -5 -2 -134 2 -173 2 -29 52 -78 111 -108 93 -47 171 -63
320 -66 154 -2 263 19 358 71 52 28 101 75 103 98 4 33 5 173 2 179 -2 4 -36
-11 -77 -33 -90 -48 -233 -81 -361 -81 -158 0 -258 21 -372 78 -46 23 -85 39
-86 35z"/>
<path d="M1049 368 c-2 -131 -1 -138 26 -173 35 -46 147 -98 257 -120 215 -41
480 9 579 111 32 33 32 35 34 134 0 55 0 100 -2 100 -2 0 -21 -11 -43 -25 -93
-59 -249 -98 -391 -98 -78 0 -196 12 -225 23 -13 5 -24 8 -24 5 0 -7 -122 44
-166 70 l-44 26 -1 -53z"/>
<path d="M2040 330 c0 -109 11 -136 77 -179 149 -99 459 -120 653 -44 68 27
144 77 156 103 7 16 16 210 9 210 -2 0 -25 -13 -52 -29 -51 -32 -148 -67 -209
-77 -20 -3 -46 -8 -58 -10 -31 -7 -215 -6 -261 1 -110 17 -272 75 -290 105
-17 27 -25 2 -25 -80z"/>
</g>
</svg>
